<svg xmlns="http://www.w3.org/2000/svg" width="46.5" height="56.576" viewBox="0 0 46.5 56.576">
  <g id="stopwatch" transform="translate(0.25 0.25)">
    <path id="Path_5" data-name="Path 5" d="M40.942,18.685,43.3,16.327a3.285,3.285,0,0,0-4.646-4.646L36.136,14.2a23,23,0,0,0-8.756-3.7V7.229h2.19a1.1,1.1,0,0,0,1.1-1.1V3.286A3.289,3.289,0,0,0,27.381,0H18.619a3.289,3.289,0,0,0-3.286,3.286V6.134a1.1,1.1,0,0,0,1.1,1.1h2.19V10.5a23,23,0,0,0-8.756,3.7L7.345,11.681A3.285,3.285,0,0,0,2.7,16.327l2.358,2.358a23,23,0,1,0,35.885,0ZM40.2,13.23a1.1,1.1,0,0,1,1.549,1.549l-2.263,2.263q-.765-.785-1.6-1.5ZM17.523,3.286a1.1,1.1,0,0,1,1.1-1.1h8.762a1.1,1.1,0,0,1,1.1,1.1V5.039H17.523ZM25.19,7.229V10.18a23.563,23.563,0,0,0-4.381,0V7.229Zm-20.942,6a1.1,1.1,0,0,1,1.549,0l2.315,2.316q-.834.709-1.6,1.5L4.248,14.778a1.1,1.1,0,0,1,0-1.549ZM23,53.886A20.812,20.812,0,0,1,19.877,12.5a21.145,21.145,0,0,1,6.246,0A20.8,20.8,0,0,1,35.588,16.5a21.007,21.007,0,0,1,3.047,2.839A20.81,20.81,0,0,1,23,53.886Zm0,0" fill="#3d4990" stroke="#3d4990" stroke-width="0.5"/>
    <path id="Path_6" data-name="Path 6" d="M183.286,207.333a3.286,3.286,0,0,0,1.1-6.383V193.1a1.1,1.1,0,0,0-2.19,0v7.855a3.286,3.286,0,0,0,1.1,6.383Zm0-4.381a1.1,1.1,0,1,1-1.1,1.1A1.1,1.1,0,0,1,183.286,202.952Zm0,0" transform="translate(-160.286 -170.971)" fill="#3d4990" stroke="#3d4990" stroke-width="0.5"/>
    <path id="Path_7" data-name="Path 7" d="M88.1,161.948c-.017-.02-.034-.04-.053-.059s-.042-.04-.064-.059a16.488,16.488,0,0,0-6.9-4.087,1.1,1.1,0,1,0-.62,2.1,14.274,14.274,0,0,1,5.231,2.852l-.739.739a1.1,1.1,0,1,0,1.549,1.549l.741-.741a14.1,14.1,0,0,1,3.388,8.164H89.571a1.1,1.1,0,1,0,0,2.19h1.053a14.1,14.1,0,0,1-3.388,8.164l-.741-.741a1.1,1.1,0,1,0-1.549,1.549l.741.741a14.108,14.108,0,0,1-8.164,3.388v-1.054a1.1,1.1,0,1,0-2.19,0V187.7a14.1,14.1,0,0,1-8.164-3.388l.741-.741a1.1,1.1,0,1,0-1.549-1.549l-.741.741a14.1,14.1,0,0,1-3.388-8.164h1.053a1.1,1.1,0,1,0,0-2.19H62.232a14.1,14.1,0,0,1,3.388-8.164l.741.741a1.1,1.1,0,0,0,1.549-1.549l-.739-.739a14.268,14.268,0,0,1,5.231-2.852,1.1,1.1,0,1,0-.62-2.1,16.483,16.483,0,0,0-6.9,4.085c-.023.019-.045.039-.066.06s-.036.039-.053.058a16.4,16.4,0,0,0,0,23.111c.017.02.034.04.053.059s.039.036.058.053a16.4,16.4,0,0,0,23.11,0c.02-.018.04-.035.059-.054s.036-.039.053-.058a16.4,16.4,0,0,0,0-23.111Zm0,0" transform="translate(-53.429 -140.426)" fill="#3d4990" stroke="#3d4990" stroke-width="0.5"/>
    <path id="Path_8" data-name="Path 8" d="M201.1,154.19a1.1,1.1,0,1,0-1.1-1.1A1.1,1.1,0,0,0,201.1,154.19Zm0,0" transform="translate(-178.096 -135.352)" fill="#3d4990" stroke="#3d4990" stroke-width="0.5"/>
  </g>
</svg>
