<svg xmlns="http://www.w3.org/2000/svg" width="51.149" height="51.155" viewBox="0 0 51.149 51.155">
  <g id="map" transform="translate(-0.031 0.001)">
    <path id="Path_3" data-name="Path 3" d="M305.527,68.991a4.5,4.5,0,1,0-4.5-4.5A4.5,4.5,0,0,0,305.527,68.991Zm0-5.994a1.5,1.5,0,1,1-1.5,1.5A1.5,1.5,0,0,1,305.527,63Z" transform="translate(-270.93 -54.007)" fill="#3d4990"/>
    <path id="Path_4" data-name="Path 4" d="M.976,45.048l15.073,5.989a1.432,1.432,0,0,0,1.039.034L34.551,45.25l14.577,5.792a1.5,1.5,0,0,0,2.052-1.393V16.483a1.5,1.5,0,0,0-.949-1.394L44.8,12.947a10.49,10.49,0,1,0-20.524-.6l-7.613,2.538L2.083,9.1A1.5,1.5,0,0,0,.031,10.489V43.655A1.5,1.5,0,0,0,.976,45.048ZM48.183,17.5V47.441l-12.088-4.8V25.973l6.9-9.2a10.607,10.607,0,0,0,.693-1.047ZM34.6,3a7.5,7.5,0,0,1,7.492,7.492,7.426,7.426,0,0,1-1.494,4.49l-6,8-6-8A7.493,7.493,0,0,1,34.6,3ZM26.2,16.777l6.9,9.2v16.6L18.113,47.57V17.563l7.106-2.369A10.54,10.54,0,0,0,26.2,16.777ZM3.028,12.7l12.088,4.8V47.441l-12.088-4.8V12.7Z" transform="translate(0)" fill="#3d4990"/>
  </g>
</svg>
