<svg xmlns="http://www.w3.org/2000/svg" width="34.428" height="50.721" viewBox="0 0 34.428 50.721">
  <g id="location-pin" transform="translate(-78.957)">
    <g id="Group_1" data-name="Group 1" transform="translate(78.957)">
      <path id="Path_1" data-name="Path 1" d="M96.171,0A17.233,17.233,0,0,0,78.957,17.214c0,3.814,2.246,9.615,7.067,18.255,3.29,5.9,6.565,10.875,6.7,11.085l2.367,3.588a1.29,1.29,0,0,0,2.153,0l2.367-3.588c.137-.207,3.388-5.144,6.7-11.085,4.821-8.64,7.067-14.44,7.067-18.255A17.233,17.233,0,0,0,96.171,0Zm7.894,34.212c-3.269,5.858-6.469,10.717-6.6,10.921l-1.291,1.956-1.29-1.956c-.136-.206-3.36-5.109-6.6-10.922-4.472-8.015-6.74-13.734-6.74-17a14.634,14.634,0,0,1,29.269,0C110.805,20.479,108.538,26.2,104.065,34.212Z" transform="translate(-78.957)" fill="#3d4990"/>
      <path id="Path_2" data-name="Path 2" d="M162.835,73.291a9.544,9.544,0,1,0,9.544,9.544A9.555,9.555,0,0,0,162.835,73.291Zm0,16.509a6.965,6.965,0,1,1,6.965-6.965A6.972,6.972,0,0,1,162.835,89.8Z" transform="translate(-145.621 -65.729)" fill="#3d4990"/>
    </g>
  </g>
</svg>
