<svg xmlns="http://www.w3.org/2000/svg" width="68.653" height="59.069" viewBox="0 0 68.653 59.069">
  <g id="taxi_1_" data-name="taxi (1)" transform="translate(0.251 0.25)">
    <path id="Path_13" data-name="Path 13" d="M66.821,21.3a1.331,1.331,0,0,0,0-2.662H62.828a1.331,1.331,0,0,0-.977.427l-3.133,3.384s-2.124-11.288-2.126-11.3a4.011,4.011,0,0,0-3.906-3.162h-6.7l-.775-4.651A3.981,3.981,0,0,0,41.272,0H40.066a1.331,1.331,0,1,0,0,2.662h1.206a1.328,1.328,0,0,1,1.313,1.112l.7,4.213H24.865l.7-4.212A1.328,1.328,0,0,1,26.88,2.662h1.206a1.331,1.331,0,1,0,0-2.662H26.88a3.981,3.981,0,0,0-3.939,3.337l-.775,4.65h-6.7a4.011,4.011,0,0,0-3.906,3.162c0,.01-2.126,11.3-2.126,11.3L6.3,19.062a1.331,1.331,0,0,0-.977-.427H1.33a1.331,1.331,0,1,0,0,2.662H4.742l2.651,2.863A9.333,9.333,0,0,0,0,33.278v11.98a5.331,5.331,0,0,0,5.324,5.324H7.986v2.662a5.324,5.324,0,0,0,10.649,0V50.582H49.517v2.662a5.324,5.324,0,0,0,10.649,0V50.582h2.662a5.331,5.331,0,0,0,5.324-5.324V33.278a9.333,9.333,0,0,0-7.393-9.117L63.41,21.3ZM14.167,11.689a1.336,1.336,0,0,1,1.3-1.04h37.22a1.336,1.336,0,0,1,1.3,1.04L56.294,23.96H52.082a9.316,9.316,0,0,0-18.442,0H11.858ZM49.383,23.96H36.34a6.656,6.656,0,0,1,13.043,0ZM15.973,53.244a2.662,2.662,0,1,1-5.324,0V50.582h5.324Zm7.557-9.318H44.622l1.6,3.993H21.932Zm1.065-2.662,1.6-3.993H41.96l1.6,3.993ZM57.5,53.244a2.662,2.662,0,1,1-5.324,0V50.582H57.5ZM65.49,33.278v11.98a2.665,2.665,0,0,1-2.662,2.662H49.087L44.1,35.446a1.331,1.331,0,0,0-1.236-.837H25.291a1.331,1.331,0,0,0-1.236.837L19.065,47.92H5.324a2.665,2.665,0,0,1-2.662-2.662V33.278a6.663,6.663,0,0,1,6.656-6.656H58.835a6.663,6.663,0,0,1,6.656,6.656Zm0,0" transform="translate(0 0)" fill="#3d4990" stroke="#3d4990" stroke-width="0.5"/>
    <path id="Path_14" data-name="Path 14" d="M65.324,240a5.324,5.324,0,1,0,5.324,5.324A5.331,5.331,0,0,0,65.324,240Zm0,7.987a2.662,2.662,0,1,1,2.662-2.662A2.665,2.665,0,0,1,65.324,247.987Zm0,0" transform="translate(-52.014 -208.053)" fill="#3d4990" stroke="#3d4990" stroke-width="0.5"/>
    <path id="Path_15" data-name="Path 15" d="M377.324,240a5.324,5.324,0,1,0,5.324,5.324A5.331,5.331,0,0,0,377.324,240Zm0,7.987a2.662,2.662,0,1,1,2.662-2.662A2.665,2.665,0,0,1,377.324,247.987Zm0,0" transform="translate(-322.483 -208.053)" fill="#3d4990" stroke="#3d4990" stroke-width="0.5"/>
    <path id="Path_16" data-name="Path 16" d="M248.662,1.331A1.331,1.331,0,1,1,247.331,0,1.331,1.331,0,0,1,248.662,1.331Zm0,0" transform="translate(-213.255)" fill="#3d4990" stroke="#3d4990" stroke-width="0.5"/>
  </g>
</svg>
